<svg width="85" height="85" viewBox="0 0 85 85" fill="none" xmlns="http://www.w3.org/2000/svg">
<g clip-path="url(#clip0_100_366)">
<path d="M65.0781 0H19.9219C8.91933 0 0 8.91933 0 19.9219V65.0781C0 76.0807 8.91933 85 19.9219 85H65.0781C76.0807 85 85 76.0807 85 65.0781V19.9219C85 8.91933 76.0807 0 65.0781 0Z" fill="#00005B"/>
<path d="M34.9154 51.8367H21.7404L19.0486 60.1949C18.9779 60.5137 18.6946 60.7262 18.3759 60.691H11.7173C11.3279 60.691 11.2216 60.4785 11.3279 60.0535L22.7321 27.3637C22.8384 27.0097 22.9446 26.691 23.0861 26.266C23.2279 25.5222 23.2986 24.743 23.2986 23.9637C23.2634 23.7867 23.4048 23.6097 23.5818 23.5742H32.7548C33.0029 23.5742 33.1798 23.6805 33.2154 23.8574L46.1423 59.9824C46.2486 60.3722 46.1423 60.5492 45.7884 60.5492H38.3861C38.1384 60.5847 37.8904 60.4074 37.8196 60.1597L34.9154 51.6597V51.8367ZM23.7946 44.7887H32.7904C32.5779 44.0449 32.2943 43.1597 31.9756 42.2387C31.6568 41.2824 31.3381 40.2555 31.0193 39.193C30.6654 38.0949 30.3466 37.0324 29.9923 35.9347C29.6381 34.837 29.3196 33.8097 29.0361 32.7824C28.7529 31.791 28.5048 30.8699 28.2568 30.0199H28.1861C27.8673 31.543 27.4779 33.066 26.9818 34.5887C26.4506 36.2887 25.9193 38.0597 25.3529 39.8305C24.8923 41.6367 24.3256 43.3012 23.7946 44.7887ZM67.0029 48.6492H55.7759C55.9173 49.7472 56.2716 50.8449 56.8736 51.8012C57.5111 52.7574 58.3966 53.5012 59.4591 53.9262C60.8759 54.5285 62.4341 54.8472 63.9923 54.8117C65.2321 54.7762 66.4716 54.6699 67.6759 54.4222C68.756 54.2809 69.8146 54.0073 70.8279 53.6074C71.0048 53.466 71.1111 53.5367 71.1111 53.891V59.3097C71.1111 59.4512 71.0759 59.593 71.0404 59.7347C70.9696 59.841 70.8986 59.9117 70.7923 59.9824C69.6597 60.48 68.4703 60.8368 67.2509 61.0449C65.5942 61.3637 63.9083 61.5061 62.2216 61.4699C59.5298 61.4699 57.2634 61.0449 55.4216 60.2305C53.6861 59.4867 52.1634 58.318 50.9591 56.866C49.8378 55.5015 49.0063 53.9227 48.5154 52.2262C48.0196 50.5617 47.7716 48.8262 47.7716 47.0555C47.7716 45.143 48.0548 43.266 48.6571 41.4242C49.2217 39.6509 50.1237 38.0033 51.3134 36.5722C52.4821 35.1555 53.9341 34.0222 55.5986 33.2074C57.2634 32.393 59.2466 32.1097 61.5134 32.1097C63.3904 32.0742 65.2673 32.4285 67.0029 33.2074C68.4548 33.8449 69.7298 34.8012 70.7216 36.041C71.6423 37.2449 72.3861 38.591 72.8466 40.0785C73.3071 41.4949 73.5196 42.9472 73.5196 44.3992C73.5196 45.2492 73.4841 45.993 73.4486 46.666C73.3779 47.3387 73.3423 47.8347 73.3071 48.1535C73.2716 48.4012 73.0591 48.6137 72.8111 48.6137C72.5986 48.6137 72.2091 48.6492 71.6423 48.6847C71.0759 48.7555 70.4029 48.791 69.5884 48.791C68.7736 48.791 67.9236 48.6492 67.0029 48.6492ZM55.7759 43.4785H63.2486C64.1696 43.4785 64.8423 43.4785 65.2673 43.443C65.5509 43.4074 65.8341 43.3367 66.0821 43.1597V42.8055C66.0833 42.36 66.0115 41.9173 65.8696 41.4949C65.2321 39.5117 63.3548 38.166 61.2654 38.2367C60.3042 38.1829 59.3479 38.4084 58.512 38.886C57.6762 39.3637 56.9964 40.073 56.5548 40.9285C56.1298 41.743 55.8821 42.593 55.7759 43.4785Z" fill="#9999FF"/>
</g>
<defs>
<clipPath id="clip0_100_366">
<rect width="85" height="85" fill="white"/>
</clipPath>
</defs>
</svg>
