<svg width="85" height="85" viewBox="0 0 85 85" fill="none" xmlns="http://www.w3.org/2000/svg">
<g clip-path="url(#clip0_100_310)">
<path d="M15.0742 1.0625H69.9922C78.293 1.0625 85.0664 7.76953 85.0664 16.1367V68.9297C85.0664 77.2305 78.3594 84.0039 69.9922 84.0039H15.0742C6.70703 83.9375 0 77.2305 0 68.8633V16.1367C0 7.76953 6.70703 1.0625 15.0742 1.0625Z" fill="#330000"/>
<path d="M41.1054 50.668H27.8906L25.2343 58.9688C25.1679 59.3008 24.9023 59.5 24.5703 59.4336H17.9297C17.5312 59.4336 17.4648 59.2344 17.5312 58.7695L28.9531 25.9648C29.0859 25.6328 29.1523 25.2344 29.2851 24.7695C29.4179 24.0391 29.4843 23.2422 29.4843 22.4453C29.4179 22.2461 29.6172 22.1133 29.75 22.0469H38.914C39.1797 22.0469 39.3125 22.1797 39.3789 22.3125L52.3281 58.7695C52.4609 59.168 52.3281 59.3672 51.9961 59.3672H44.5586C44.2929 59.4336 44.0937 59.2344 43.9609 58.9688L41.1054 50.668ZM29.9492 43.4297H38.914C38.7148 42.6992 38.4492 41.7695 38.1172 40.9062C37.7851 39.9766 37.4531 38.9141 37.1875 37.8516C36.8554 36.7227 36.5234 35.6602 36.1914 34.5977C35.8593 33.4687 35.5273 32.4727 35.2617 31.4766C34.9961 30.4805 34.7304 29.5508 34.4648 28.6875H34.3984C34.0664 30.2148 33.6679 31.7422 33.2031 33.2695C32.6718 34.9961 32.1406 36.7227 31.5429 38.5156C31.0117 40.3086 30.4804 41.9688 29.9492 43.4297ZM60.2304 28.3555C59.0351 28.4219 57.9062 27.957 57.1093 27.0938C56.3125 26.2305 55.8476 25.0352 55.914 23.8398C55.8476 22.6445 56.3125 21.5156 57.1758 20.7188C58.039 19.9219 59.1679 19.457 60.2968 19.457C61.6914 19.457 62.7539 19.8555 63.5508 20.7188C64.3476 21.582 64.7461 22.7109 64.7461 23.8398C64.8125 25.0352 64.3476 26.2305 63.4843 27.0938C62.6211 27.957 61.4258 28.4219 60.2304 28.3555ZM56.2461 59.1016V31.8086C56.2461 31.4766 56.3789 31.3438 56.7109 31.3438H63.75C64.082 31.3438 64.2148 31.543 64.2148 31.8086V59.1016C64.2148 59.5 64.082 59.6992 63.75 59.6992H56.7773C56.4453 59.6328 56.2461 59.4336 56.2461 59.1016Z" fill="#FF9A00"/>
</g>
<defs>
<clipPath id="clip0_100_310">
<rect width="85" height="85" fill="white"/>
</clipPath>
</defs>
</svg>
