<svg width="85" height="85" viewBox="0 0 85 85" fill="none" xmlns="http://www.w3.org/2000/svg">
<g clip-path="url(#clip0_100_370)">
<path d="M65.0781 0H19.9219C8.91933 0 0 8.91933 0 19.9219V65.0781C0 76.0807 8.91933 85 19.9219 85H65.0781C76.0807 85 85 76.0807 85 65.0781V19.9219C85 8.91933 76.0807 0 65.0781 0Z" fill="#242938"/>
<path d="M35.0466 45.5822C35.3039 40.9736 37.5498 36.9132 40.9381 34.0348C44.2611 31.2079 48.7339 29.48 53.6141 29.48C58.4893 29.48 62.9621 31.2079 66.2874 34.0348C69.6735 36.9132 71.9193 40.9736 72.179 45.5772C72.436 50.3126 70.5417 54.7117 67.2188 57.9726C63.8304 61.2896 59.0109 63.3711 53.6141 63.3711C48.2173 63.3711 43.3882 61.2896 40.0021 57.9726C36.6765 54.7117 34.7873 50.3126 35.0466 45.5822Z" fill="white"/>
<path d="M44.0878 45.9959C44.2196 43.6312 45.3721 41.5477 47.1106 40.0708C48.8156 38.6202 51.1106 37.7336 53.6148 37.7336C56.1163 37.7336 58.4113 38.6202 60.1173 40.0708C61.8548 41.5477 63.0073 43.6312 63.1404 45.9933C63.2723 48.4231 62.3004 50.6802 60.5954 52.3536C58.8566 54.0556 56.3839 55.1234 53.6148 55.1234C50.8457 55.1234 48.3677 54.0556 46.6302 52.3536C44.9242 50.6802 43.9547 48.4231 44.0878 45.9959Z" fill="#265787"/>
<path d="M28.9166 50.7743C28.9329 51.6996 29.2264 53.4979 29.667 54.9024C30.5934 57.8748 32.1639 60.6246 34.349 63.0481C36.5918 65.5394 39.3534 67.5402 42.5432 68.9606C45.896 70.4524 49.5288 71.2128 53.3023 71.2065C57.0695 71.2015 60.7023 70.4262 64.0551 68.9231C67.245 67.4887 70.0042 65.4793 72.243 62.987C74.4271 60.5532 75.9953 57.7984 76.9237 54.826C77.3866 53.3452 77.6818 51.817 77.8036 50.2702C77.9194 48.7613 77.8706 47.2443 77.6581 45.746C77.2424 42.8072 76.2304 40.0497 74.6722 37.5362C73.2474 35.2266 71.4103 33.2045 69.2262 31.5025L69.2312 31.4985L47.189 14.4929C47.169 14.4776 47.1531 14.4613 47.1318 14.4477C45.6855 13.3321 43.2537 13.3361 41.6633 14.454C40.0553 15.5846 39.8713 17.4539 41.3024 18.6333L41.2961 18.6396L50.4897 26.1515L22.4686 26.1814H22.4314C20.1151 26.184 17.8889 27.7107 17.4483 29.6405C16.9954 31.6061 18.5682 33.2367 20.9764 33.2457L20.9728 33.2543L35.1754 33.2267L9.83146 52.7738C9.79925 52.7977 9.76439 52.8226 9.73451 52.8465C7.34388 54.6859 6.57091 57.7446 8.07667 59.6803C9.60501 61.6489 12.8546 61.6526 15.2701 59.6916L29.1022 48.3169C29.1022 48.3169 28.9003 49.8525 28.9166 50.7743ZM64.4596 55.9164C61.6097 58.834 57.6197 60.4885 53.3023 60.4971C48.9786 60.5048 44.9886 58.8652 42.1388 55.9526C40.7462 54.5332 39.7229 52.9003 39.092 51.1607C38.4711 49.4481 38.2324 47.6204 38.3928 45.8057C38.5432 44.0164 39.0734 42.3095 39.9198 40.7652C40.7512 39.2468 41.896 37.8752 43.3098 36.7147C46.0803 34.4463 49.6071 33.2181 53.296 33.2131C56.9885 33.2082 60.513 34.4247 63.2862 36.6858C64.6973 37.8413 65.8411 39.2083 66.6726 40.7237C67.5305 42.2774 68.0527 43.994 68.2055 45.7623C68.3634 47.5757 68.1239 49.4019 67.5036 51.1133C66.8714 52.8578 65.8521 54.4907 64.4596 55.9164Z" fill="#EA7600"/>
</g>
<defs>
<clipPath id="clip0_100_370">
<rect width="85" height="85" fill="white"/>
</clipPath>
</defs>
</svg>
