<svg width="17" height="17" viewBox="0 0 17 17" fill="none" xmlns="http://www.w3.org/2000/svg">
<path d="M8.41484 6.474C9.3215 6.5165 9.55525 7.28859 9.56942 7.64984H10.8373C10.7807 6.24734 9.78192 5.39025 8.39359 5.39025C6.82817 5.39025 5.6665 6.37484 5.6665 8.599C5.6665 9.97317 6.32525 11.6023 8.3865 11.6023C9.959 11.6023 10.8019 10.4336 10.8232 9.51275H9.55525C9.534 9.93067 9.2365 10.4903 8.40067 10.5328C7.47275 10.5044 7.08317 9.78192 7.08317 8.599C7.08317 6.55192 7.98984 6.48817 8.41484 6.474ZM8.49984 1.4165C4.58984 1.4165 1.4165 4.58984 1.4165 8.49984C1.4165 12.4098 4.58984 15.5832 8.49984 15.5832C12.4098 15.5832 15.5832 12.4098 15.5832 8.49984C15.5832 4.58984 12.4098 1.4165 8.49984 1.4165ZM8.49984 14.1665C5.37609 14.1665 2.83317 11.6236 2.83317 8.49984C2.83317 5.37609 5.37609 2.83317 8.49984 2.83317C11.6236 2.83317 14.1665 5.37609 14.1665 8.49984C14.1665 11.6236 11.6236 14.1665 8.49984 14.1665Z" fill="white"/>
</svg>
