<svg width="35" height="35" viewBox="0 0 35 35" fill="none" xmlns="http://www.w3.org/2000/svg">
<path d="M2.9165 8.74992C2.9165 7.97637 3.22379 7.2345 3.77078 6.68752C4.31776 6.14054 5.05962 5.83325 5.83317 5.83325H29.1665C29.9401 5.83325 30.6819 6.14054 31.2289 6.68752C31.7759 7.2345 32.0832 7.97637 32.0832 8.74992V26.2499C32.0832 27.0235 31.7759 27.7653 31.2289 28.3123C30.6819 28.8593 29.9401 29.1666 29.1665 29.1666H5.83317C5.05962 29.1666 4.31776 28.8593 3.77078 28.3123C3.22379 27.7653 2.9165 27.0235 2.9165 26.2499V8.74992ZM8.04838 8.74992L17.4998 17.0201L26.9513 8.74992H8.04838ZM29.1665 10.688L18.4609 20.0564C18.1949 20.2894 17.8534 20.4178 17.4998 20.4178C17.1463 20.4178 16.8047 20.2894 16.5388 20.0564L5.83317 10.688V26.2499H29.1665V10.688Z" fill="white"/>
</svg>
