<svg width="85" height="85" viewBox="0 0 85 85" fill="none" xmlns="http://www.w3.org/2000/svg">
<g clip-path="url(#clip0_100_325)">
<path d="M65.0781 0H19.9219C8.91933 0 0 8.91933 0 19.9219V65.0781C0 76.0807 8.91933 85 19.9219 85H65.0781C76.0807 85 85 76.0807 85 65.0781V19.9219C85 8.91933 76.0807 0 65.0781 0Z" fill="#242938"/>
<mask id="mask0_100_325" style="mask-type:luminance" maskUnits="userSpaceOnUse" x="20" y="9" width="45" height="67">
<path d="M20.2539 9.29688H64.5336V75.7031H20.2539V9.29688Z" fill="white"/>
</mask>
<g mask="url(#mask0_100_325)">
<path d="M31.3262 75.7032C37.4356 75.7032 42.3938 70.7449 42.3938 64.6356V53.5676H31.3262C25.2169 53.5676 20.2583 58.5262 20.2583 64.6356C20.2583 70.7449 25.2169 75.7032 31.3262 75.7032Z" fill="#0ACF83"/>
<path d="M20.2583 42.5C20.2583 36.3906 25.2169 31.4324 31.3262 31.4324H42.3938V53.5676H31.3262C25.2169 53.5676 20.2583 48.6093 20.2583 42.5Z" fill="#A259FF"/>
<path d="M20.2583 20.3645C20.2583 14.2551 25.2169 9.29688 31.3262 9.29688H42.3938V31.4324H31.3262C25.2169 31.4324 20.2583 26.4738 20.2583 20.3645Z" fill="#F24E1E"/>
<path d="M42.394 9.29688H53.4616C59.571 9.29688 64.5296 14.2551 64.5296 20.3645C64.5296 26.4738 59.571 31.4324 53.4616 31.4324H42.394V9.29688Z" fill="#FF7262"/>
<path d="M64.5296 42.5C64.5296 48.6093 59.571 53.5676 53.4616 53.5676C47.3523 53.5676 42.394 48.6093 42.394 42.5C42.394 36.3906 47.3523 31.4324 53.4616 31.4324C59.571 31.4324 64.5296 36.3906 64.5296 42.5Z" fill="#1ABCFE"/>
</g>
</g>
<defs>
<clipPath id="clip0_100_325">
<rect width="85" height="85" fill="white"/>
</clipPath>
</defs>
</svg>
