<svg width="85" height="83" viewBox="0 0 85 83" fill="none" xmlns="http://www.w3.org/2000/svg">
<g clip-path="url(#clip0_501_80)">
<path d="M70.8887 0H14.1113C6.31786 0 0 6.31726 0 14.11V68.7572C0 76.5499 6.31786 82.8672 14.1113 82.8672H70.8887C78.6821 82.8672 85 76.5499 85 68.7572V14.11C85 6.31726 78.6821 0 70.8887 0Z" fill="#001E36"/>
<path d="M44.6391 58.5678H22.1728C21.7923 58.5678 21.6023 58.3587 21.6027 57.9403V21.7361C21.5927 21.6664 21.5991 21.5953 21.6214 21.5285C21.6436 21.4617 21.6811 21.401 21.7309 21.3512C21.7807 21.3014 21.8413 21.2639 21.9081 21.2416C21.9749 21.2193 22.046 21.2129 22.1157 21.2228H29.0724C29.1267 21.2152 29.1819 21.2202 29.2338 21.2376C29.2858 21.255 29.333 21.2842 29.3717 21.3229C29.4104 21.3616 29.4395 21.4088 29.4569 21.4608C29.4742 21.5127 29.4792 21.568 29.4715 21.6222V51.3843H45.8364C46.1784 51.3843 46.3115 51.5553 46.2358 51.8973L45.2092 58.0549C45.2067 58.1389 45.1849 58.2213 45.1453 58.2955C45.1057 58.3697 45.0495 58.4337 44.9811 58.4825C44.8753 58.5373 44.7582 58.5667 44.6391 58.5682M50.2836 30.2313H56.4989C56.8455 30.2346 57.1483 30.467 57.24 30.8017C57.3758 31.0514 57.4721 31.3206 57.5255 31.5998C57.6048 31.967 57.6617 32.3376 57.6962 32.7117C57.7338 33.1107 57.7529 33.5383 57.7533 33.9945C58.8191 32.7534 60.1045 31.7193 61.5451 30.9441C63.1634 30.0691 64.9803 29.6272 66.8197 29.6612C66.8895 29.6513 66.9605 29.6577 67.0273 29.68C67.0941 29.7023 67.1548 29.7398 67.2046 29.7896C67.2543 29.8394 67.2918 29.9001 67.3141 29.967C67.3363 30.0338 67.3427 30.1048 67.3327 30.1745V37.0735C67.3327 37.3397 67.1427 37.4728 66.7626 37.4725C64.4657 37.3304 62.1681 37.741 60.0626 38.6697C59.3472 38.9796 58.6986 39.4249 58.1524 39.9811V58.0552C58.1524 58.3972 58.0003 58.5682 57.6962 58.5682H50.7966C50.7191 58.5793 50.6402 58.5722 50.5659 58.5475C50.4917 58.5227 50.4242 58.4811 50.3689 58.4257C50.3136 58.3704 50.2719 58.303 50.2472 58.2287C50.2225 58.1545 50.2154 58.0756 50.2265 57.9981V38.3845C50.2265 37.9071 50.2234 37.4139 50.2172 36.9048L50.2056 36.1299C50.2033 35.9987 50.2008 35.8665 50.1979 35.7335C50.1834 35.0403 50.1637 34.3472 50.1388 33.6542L50.1123 32.9683C50.087 32.185 50.011 31.4041 49.8845 30.6307C49.8711 30.579 49.8706 30.5248 49.8829 30.4729C49.8952 30.421 49.9201 30.3728 49.9553 30.3327C49.9904 30.2925 50.0349 30.2616 50.0848 30.2425C50.1346 30.2234 50.1884 30.2169 50.2414 30.2233L50.2836 30.2313Z" fill="#31A8FF"/>
</g>
<defs>
<clipPath id="clip0_501_80">
<rect width="85" height="83" fill="white"/>
</clipPath>
</defs>
</svg>
