<svg width="35" height="35" viewBox="0 0 35 35" fill="none" xmlns="http://www.w3.org/2000/svg">
<path d="M17.5 3.28125C12.0654 3.28125 7.65625 7.47783 7.65625 12.6465C7.65625 18.5938 14.2188 28.0185 16.6284 31.2737C16.7284 31.4111 16.8595 31.523 17.011 31.6001C17.1625 31.6772 17.33 31.7173 17.5 31.7173C17.67 31.7173 17.8375 31.6772 17.989 31.6001C18.1405 31.523 18.2716 31.4111 18.3716 31.2737C20.7812 28.0198 27.3438 18.5985 27.3438 12.6465C27.3438 7.47783 22.9346 3.28125 17.5 3.28125Z" stroke="white" stroke-width="2" stroke-linecap="round" stroke-linejoin="round"/>
<path d="M17.5 16.4062C19.3122 16.4062 20.7812 14.9372 20.7812 13.125C20.7812 11.3128 19.3122 9.84375 17.5 9.84375C15.6878 9.84375 14.2188 11.3128 14.2188 13.125C14.2188 14.9372 15.6878 16.4062 17.5 16.4062Z" stroke="white" stroke-width="2" stroke-linecap="round" stroke-linejoin="round"/>
</svg>
