<svg width="30" height="111" viewBox="0 0 30 111" fill="none" xmlns="http://www.w3.org/2000/svg">
<path d="M22.5988 73.983V70.4802H17.3446C15.16 70.4802 13.4463 70.0282 12.2033 69.1243C10.9604 68.2015 10.0753 66.9774 9.54798 65.452C9.02067 63.9077 8.75702 62.2222 8.75702 60.3955V36.6384H21.7231V33.1356H5.1412V60.678C5.1412 63.0697 5.55551 65.2731 6.38414 67.2881C7.21276 69.3032 8.48395 70.9228 10.1977 72.1469C11.9114 73.371 14.1054 73.983 16.7796 73.983H22.5988Z" fill="white"/>
<path d="M7.23174 55V51.4972H12.486C14.6705 51.4972 16.3843 51.0452 17.6272 50.1412C18.8702 49.2185 19.7553 47.9944 20.2826 46.4689C20.8099 44.9247 21.0735 43.2392 21.0735 41.4124V17.6554H8.10744V14.1525H24.6894V41.6949C24.6894 44.0866 24.2751 46.29 23.4464 48.3051C22.6178 50.3202 21.3466 51.9397 19.6329 53.1638C17.9191 54.3879 15.7251 55 13.0509 55H7.23174Z" fill="white"/>
</svg>
