<svg width="85" height="85" viewBox="0 0 85 85" fill="none" xmlns="http://www.w3.org/2000/svg">
<g clip-path="url(#clip0_100_424)">
<path d="M65.0781 0H19.9219C8.91933 0 0 8.91933 0 19.9219V65.0781C0 76.0807 8.91933 85 19.9219 85H65.0781C76.0807 85 85 76.0807 85 65.0781V19.9219C85 8.91933 76.0807 0 65.0781 0Z" fill="#00005B"/>
<path d="M17.9297 60.6555V24.1762C17.9297 23.9285 18.0359 23.7867 18.284 23.7867C18.8859 23.7867 19.4527 23.7867 20.2672 23.7512C21.1172 23.716 22.0027 23.716 22.959 23.6805C23.9152 23.6449 24.9422 23.6449 26.0402 23.6097C27.1379 23.5742 28.2004 23.5742 29.2629 23.5742C32.1672 23.5742 34.5754 23.9285 36.559 24.6722C38.3368 25.2761 39.9579 26.268 41.3047 27.5762C42.4457 28.7214 43.3274 30.0983 43.8902 31.6137C44.4215 33.1012 44.7047 34.6242 44.7047 36.218C44.7047 39.2638 43.9964 41.7784 42.5797 43.7617C41.1629 45.7449 39.1797 47.2324 36.8777 48.0824C34.4692 48.968 31.8129 49.2867 28.909 49.2867C28.059 49.2867 27.4922 49.2867 27.1379 49.2512C26.784 49.216 26.2879 49.216 25.6152 49.216V60.5847C25.6504 60.8324 25.4734 61.0449 25.2254 61.0805H18.3547C18.0715 61.0805 17.9297 60.9387 17.9297 60.6199V60.6555ZM25.6504 30.6574V42.5574C26.1465 42.593 26.6067 42.6285 27.0317 42.6285H28.909C30.2902 42.6285 31.6715 42.416 32.9817 41.991C34.1152 41.6722 35.1067 40.9992 35.8859 40.1137C36.6297 39.2285 36.984 38.0242 36.984 36.466C37.0172 35.3592 36.7346 34.2658 36.1692 33.3137C35.5672 32.393 34.7172 31.6847 33.6902 31.2949C32.3797 30.7637 30.9629 30.5512 29.5109 30.5867C28.5902 30.5867 27.7754 30.5867 27.1027 30.6222C26.3942 30.5867 25.8984 30.6222 25.6504 30.6574ZM49.8047 32.7472H56.0027C56.357 32.7472 56.6402 32.9949 56.7465 33.3137C56.8527 33.5972 56.9234 33.8805 56.959 34.1992C57.0297 34.5535 57.1007 34.943 57.1359 35.2972C57.1715 35.6867 57.207 36.1117 57.207 36.5722C58.2704 35.3307 59.5554 34.2978 60.9965 33.5262C62.6257 32.6055 64.5027 32.1449 66.3797 32.1449C66.6277 32.1097 66.8402 32.2867 66.8757 32.5347V39.5824C66.8757 39.866 66.6984 39.9722 66.309 39.9722C65.034 39.9367 63.7234 40.043 62.484 40.3262C61.4569 40.5387 60.4652 40.8574 59.509 41.2824C58.8359 41.6012 58.1984 42.0262 57.7027 42.593V60.6555C57.7027 61.0097 57.5609 61.1512 57.2422 61.1512H50.2652C49.982 61.1867 49.734 61.0097 49.6984 60.7262V40.9637C49.6984 40.1137 49.6984 39.2285 49.6632 38.3074C49.6277 37.3867 49.6277 36.466 49.5922 35.5449C49.5922 34.7305 49.5215 33.9512 49.4507 33.1367C49.4152 32.9597 49.5215 32.7824 49.6984 32.7472C49.6984 32.7117 49.7695 32.7117 49.8047 32.7472Z" fill="#9999FF"/>
</g>
<defs>
<clipPath id="clip0_100_424">
<rect width="85" height="85" fill="white"/>
</clipPath>
</defs>
</svg>
