<svg width="35" height="35" viewBox="0 0 35 35" fill="none" xmlns="http://www.w3.org/2000/svg">
<path d="M8.75 20.7812C10.5622 20.7812 12.0312 19.3122 12.0312 17.5C12.0312 15.6878 10.5622 14.2188 8.75 14.2188C6.93782 14.2188 5.46875 15.6878 5.46875 17.5C5.46875 19.3122 6.93782 20.7812 8.75 20.7812Z" stroke="white" stroke-width="2" stroke-linecap="round" stroke-linejoin="round"/>
<path d="M26.25 10.9375C28.0622 10.9375 29.5312 9.46843 29.5312 7.65625C29.5312 5.84407 28.0622 4.375 26.25 4.375C24.4378 4.375 22.9688 5.84407 22.9688 7.65625C22.9688 9.46843 24.4378 10.9375 26.25 10.9375Z" stroke="white" stroke-width="2" stroke-linecap="round" stroke-linejoin="round"/>
<path d="M26.25 30.625C28.0622 30.625 29.5312 29.1559 29.5312 27.3438C29.5312 25.5316 28.0622 24.0625 26.25 24.0625C24.4378 24.0625 22.9688 25.5316 22.9688 27.3438C22.9688 29.1559 24.4378 30.625 26.25 30.625Z" stroke="white" stroke-width="2" stroke-linecap="round" stroke-linejoin="round"/>
<path d="M11.6094 19.1084L23.3904 25.7352M23.3904 9.26465L11.6094 15.8914" stroke="white" stroke-width="2" stroke-linecap="round" stroke-linejoin="round"/>
</svg>
