<svg width="34" height="34" viewBox="0 0 34 34" fill="none" xmlns="http://www.w3.org/2000/svg">
<g clip-path="url(#clip0_147_41)">
<path d="M9.65813 14.2673L8.73375 17H6.375L10.3317 6.375H13.0602L17 17H14.5201L13.5957 14.2673H9.65813ZM13.1304 12.7033L11.6875 8.4065H11.5834L10.1405 12.7033H13.1304Z" fill="white"/>
<path d="M0 4.25C0 3.12283 0.447767 2.04183 1.2448 1.2448C2.04183 0.447767 3.12283 0 4.25 0L19.125 0C20.2522 0 21.3332 0.447767 22.1302 1.2448C22.9272 2.04183 23.375 3.12283 23.375 4.25V10.625H29.75C30.8772 10.625 31.9582 11.0728 32.7552 11.8698C33.5522 12.6668 34 13.7478 34 14.875V29.75C34 30.8772 33.5522 31.9582 32.7552 32.7552C31.9582 33.5522 30.8772 34 29.75 34H14.875C13.7478 34 12.6668 33.5522 11.8698 32.7552C11.0728 31.9582 10.625 30.8772 10.625 29.75V23.375H4.25C3.12283 23.375 2.04183 22.9272 1.2448 22.1302C0.447767 21.3332 0 20.2522 0 19.125V4.25ZM4.25 2.125C3.68641 2.125 3.14591 2.34888 2.7474 2.7474C2.34888 3.14591 2.125 3.68641 2.125 4.25V19.125C2.125 19.6886 2.34888 20.2291 2.7474 20.6276C3.14591 21.0261 3.68641 21.25 4.25 21.25H19.125C19.6886 21.25 20.2291 21.0261 20.6276 20.6276C21.0261 20.2291 21.25 19.6886 21.25 19.125V4.25C21.25 3.68641 21.0261 3.14591 20.6276 2.7474C20.2291 2.34888 19.6886 2.125 19.125 2.125H4.25ZM19.4182 23.3644C19.8277 24.0033 20.2739 24.6025 20.757 25.1621C19.1675 26.384 17.2019 27.2893 14.875 27.9076C15.2533 28.3688 15.8334 29.257 16.0544 29.75C18.445 28.9871 20.4744 27.9565 22.1871 26.5752C23.8382 27.9884 25.8825 29.0509 28.4134 29.7032C28.696 29.1635 29.2931 28.2731 29.75 27.812C27.3594 27.2744 25.3789 26.3372 23.7575 25.0835C25.2046 23.4961 26.3542 21.5751 27.2021 19.2249H29.75V17H23.375V19.2249H25.0006C24.3249 21.0184 23.4281 22.5101 22.2976 23.7511C21.9852 23.4187 21.6908 23.0697 21.4158 22.7056C20.8156 23.0891 20.1288 23.3156 19.4182 23.3644Z" fill="white"/>
</g>
<defs>
<clipPath id="clip0_147_41">
<rect width="34" height="34" fill="white"/>
</clipPath>
</defs>
</svg>
