<svg width="85" height="84" viewBox="0 0 85 84" fill="none" xmlns="http://www.w3.org/2000/svg">
<rect width="85" height="84" rx="20" fill="white"/>
<mask id="mask0_100_429" style="mask-type:luminance" maskUnits="userSpaceOnUse" x="9" y="9" width="67" height="67">
<path d="M56.5799 74.7851C57.103 74.9883 57.6625 75.082 58.2236 75.0606C58.7846 75.0391 59.3353 74.9028 59.8412 74.6603L73.3764 68.1734C74.0735 67.8391 74.6617 67.3156 75.0733 66.6631C75.4849 66.0106 75.7032 65.2556 75.7031 64.485V20.4994C75.7031 19.7288 75.4848 18.9739 75.0732 18.3215C74.6616 17.669 74.0734 17.1455 73.3764 16.8113L59.8414 10.3242C59.0766 9.95774 58.2163 9.83711 57.3796 9.97898C56.543 10.1209 55.7712 10.5182 55.1712 11.1161L29.2597 34.6617L17.9728 26.1283C17.4637 25.7434 16.8353 25.5481 16.1968 25.5764C15.5582 25.6047 14.9497 25.8547 14.4769 26.2831L10.857 29.563C9.6634 30.6443 9.66211 32.5147 10.854 33.5978L20.6422 42.4922L10.854 51.3864C9.66211 52.4697 9.6634 54.3399 10.857 55.4214L14.4769 58.701C14.9497 59.1295 15.5582 59.3796 16.1967 59.4079C16.8353 59.4362 17.4637 59.241 17.9728 58.8561L29.2597 50.3225L55.1712 73.8681C55.5718 74.2678 56.0515 74.5801 56.5799 74.7851ZM59.2776 27.6274L39.6166 42.4922L59.2776 57.3568V27.6274Z" fill="white"/>
</mask>
<g mask="url(#mask0_100_429)">
<path d="M73.4165 16.8215L59.8708 10.3254C59.1058 9.95855 58.2452 9.8376 57.4081 9.97929C56.5711 10.121 55.7989 10.5183 55.1985 11.1163L10.8544 51.3866C9.66182 52.4699 9.66336 54.3401 10.8575 55.4216L14.4797 58.7012C14.9529 59.1298 15.5618 59.3799 16.2007 59.4082C16.8396 59.4366 17.4684 59.2413 17.9779 58.8563L71.3783 18.5067C73.1698 17.1532 75.743 18.4258 75.743 20.6655V20.5088C75.7429 19.7384 75.5246 18.9837 75.113 18.3314C74.7015 17.6791 74.1134 17.1557 73.4165 16.8215Z" fill="#0065A9"/>
</g>
<mask id="mask1_100_429" style="mask-type:luminance" maskUnits="userSpaceOnUse" x="9" y="9" width="67" height="67">
<path d="M56.5799 74.7851C57.103 74.9883 57.6625 75.082 58.2236 75.0606C58.7846 75.0391 59.3353 74.9028 59.8412 74.6603L73.3764 68.1734C74.0735 67.8391 74.6617 67.3156 75.0733 66.6631C75.4849 66.0106 75.7032 65.2556 75.7031 64.485V20.4994C75.7031 19.7288 75.4848 18.9739 75.0732 18.3215C74.6616 17.669 74.0734 17.1455 73.3764 16.8113L59.8414 10.3242C59.0766 9.95774 58.2163 9.83711 57.3796 9.97898C56.543 10.1209 55.7712 10.5182 55.1712 11.1161L29.2597 34.6617L17.9728 26.1283C17.4637 25.7434 16.8353 25.5481 16.1968 25.5764C15.5582 25.6047 14.9497 25.8547 14.4769 26.2831L10.857 29.563C9.6634 30.6443 9.66211 32.5147 10.854 33.5978L20.6422 42.4922L10.854 51.3864C9.66211 52.4697 9.6634 54.3399 10.857 55.4214L14.4769 58.701C14.9497 59.1295 15.5582 59.3796 16.1967 59.4079C16.8353 59.4362 17.4637 59.241 17.9728 58.8561L29.2597 50.3225L55.1712 73.8681C55.5718 74.2678 56.0515 74.5801 56.5799 74.7851ZM59.2776 27.6274L39.6166 42.4922L59.2776 57.3568V27.6274Z" fill="white"/>
</mask>
<g mask="url(#mask1_100_429)">
<path d="M73.4165 68.1631L59.8708 74.6591C59.1057 75.0258 58.2452 75.1466 57.4082 75.0049C56.5711 74.8633 55.799 74.466 55.1985 73.8682L10.8544 33.598C9.66182 32.5149 9.66336 30.6445 10.8575 29.5632L14.4797 26.2833C14.953 25.8548 15.5618 25.6047 16.2008 25.5764C16.8397 25.5481 17.4684 25.7434 17.9779 26.1284L71.3783 66.4778C73.1698 67.8313 75.743 66.5587 75.743 64.3188V64.4757C75.7429 65.2461 75.5246 66.0008 75.113 66.6531C74.7015 67.3054 74.1134 67.8288 73.4165 68.1631Z" fill="#007ACC"/>
</g>
<mask id="mask2_100_429" style="mask-type:luminance" maskUnits="userSpaceOnUse" x="9" y="9" width="67" height="67">
<path d="M56.5799 74.7851C57.103 74.9883 57.6625 75.082 58.2236 75.0606C58.7846 75.0391 59.3353 74.9028 59.8412 74.6603L73.3764 68.1734C74.0735 67.8391 74.6617 67.3156 75.0733 66.6631C75.4849 66.0106 75.7032 65.2556 75.7031 64.485V20.4994C75.7031 19.7288 75.4848 18.9739 75.0732 18.3215C74.6616 17.669 74.0734 17.1455 73.3764 16.8113L59.8414 10.3242C59.0766 9.95774 58.2163 9.83711 57.3796 9.97898C56.543 10.1209 55.7712 10.5182 55.1712 11.1161L29.2597 34.6617L17.9728 26.1283C17.4637 25.7434 16.8353 25.5481 16.1968 25.5764C15.5582 25.6047 14.9497 25.8547 14.4769 26.2831L10.857 29.563C9.6634 30.6443 9.66211 32.5147 10.854 33.5978L20.6422 42.4922L10.854 51.3864C9.66211 52.4697 9.6634 54.3399 10.857 55.4214L14.4769 58.701C14.9497 59.1295 15.5582 59.3796 16.1967 59.4079C16.8353 59.4362 17.4637 59.241 17.9728 58.8561L29.2597 50.3225L55.1712 73.8681C55.5718 74.2678 56.0515 74.5801 56.5799 74.7851ZM59.2776 27.6274L39.6166 42.4922L59.2776 57.3568V27.6274Z" fill="white"/>
</mask>
<g mask="url(#mask2_100_429)">
<path d="M59.8281 74.664C59.0629 75.0307 58.2022 75.1514 57.365 75.0096C56.5279 74.8678 55.7557 74.4704 55.1553 73.8723C56.6714 75.3822 59.2642 74.3127 59.2642 72.1768V12.8153C59.2642 10.6794 56.6714 9.60992 55.1553 11.1201C55.7557 10.522 56.5279 10.1245 57.365 9.98262C58.2021 9.84075 59.0628 9.96149 59.8281 10.3281L73.3715 16.8152C74.0688 17.1493 74.6572 17.6727 75.0691 18.3252C75.4809 18.9776 75.6994 19.7327 75.6995 20.5034V64.4893C75.6995 66.062 74.7946 67.4959 73.3715 68.1774L59.8281 74.664Z" fill="#1F9CF0"/>
</g>
<mask id="mask3_100_429" style="mask-type:luminance" maskUnits="userSpaceOnUse" x="9" y="9" width="67" height="67">
<path d="M56.5799 74.7851C57.103 74.9883 57.6625 75.082 58.2236 75.0606C58.7846 75.0391 59.3353 74.9028 59.8412 74.6603L73.3764 68.1734C74.0735 67.8391 74.6617 67.3156 75.0733 66.6631C75.4849 66.0106 75.7032 65.2556 75.7031 64.485V20.4994C75.7031 19.7288 75.4848 18.9739 75.0732 18.3215C74.6616 17.669 74.0734 17.1455 73.3764 16.8113L59.8414 10.3242C59.0766 9.95774 58.2163 9.83711 57.3796 9.97898C56.543 10.1209 55.7712 10.5182 55.1712 11.1161L29.2597 34.6617L17.9728 26.1283C17.4637 25.7434 16.8353 25.5481 16.1968 25.5764C15.5582 25.6047 14.9497 25.8547 14.4769 26.2831L10.857 29.563C9.6634 30.6443 9.66211 32.5147 10.854 33.5978L20.6422 42.4922L10.854 51.3864C9.66211 52.4697 9.6634 54.3399 10.857 55.4214L14.4769 58.701C14.9497 59.1295 15.5582 59.3796 16.1967 59.4079C16.8353 59.4362 17.4637 59.241 17.9728 58.8561L29.2597 50.3225L55.1712 73.8681C55.5718 74.2678 56.0515 74.5801 56.5799 74.7851ZM59.2776 27.6274L39.6166 42.4922L59.2776 57.3568V27.6274Z" fill="white"/>
</mask>
<g mask="url(#mask3_100_429)">
<path d="M56.5799 74.785C57.103 74.9882 57.6625 75.082 58.2236 75.0605C58.7846 75.039 59.3353 74.9028 59.8412 74.6602L73.3761 68.1731C74.0732 67.8389 74.6614 67.3154 75.0731 66.663C75.4847 66.0105 75.7031 65.2556 75.7031 64.485V20.4993C75.7031 19.7288 75.4848 18.9738 75.0732 18.3214C74.6616 17.6689 74.0734 17.1455 73.3764 16.8112L59.8409 10.3239C59.0761 9.95747 58.2159 9.83687 57.3793 9.97875C56.5426 10.1206 55.771 10.5179 55.171 11.1158L29.2597 34.6616L17.9728 26.1282C17.4637 25.7433 16.8353 25.548 16.1968 25.5763C15.5582 25.6046 14.9497 25.8547 14.4769 26.2831L10.857 29.5629C9.6634 30.6443 9.66211 32.5147 10.854 33.5978L20.6422 42.4921L10.854 51.3863C9.66211 52.4697 9.6634 54.3398 10.857 55.4214L14.4769 58.701C14.9497 59.1294 15.5582 59.3795 16.1967 59.4078C16.8353 59.4362 17.4637 59.241 17.9728 58.8561L29.2597 50.3224L55.171 73.868C55.5719 74.2674 56.0516 74.5797 56.5799 74.785ZM59.2776 27.6271L39.6166 42.4921L59.2776 57.3567V27.6271Z" fill="url(#paint0_linear_100_429)" fill-opacity="0.25"/>
</g>
<defs>
<linearGradient id="paint0_linear_100_429" x1="3297.07" y1="9.9209" x2="3297.07" y2="6524.18" gradientUnits="userSpaceOnUse">
<stop stop-color="white"/>
<stop offset="1" stop-color="white" stop-opacity="0"/>
</linearGradient>
</defs>
</svg>
