<svg width="38" height="38" viewBox="0 0 38 38" fill="none" xmlns="http://www.w3.org/2000/svg">
<g clip-path="url(#clip0_107_120)">
<path d="M0.811094 18.7726C0.810203 21.9654 1.65095 25.0828 3.24962 27.8306L0.658203 37.219L10.3411 34.6998C13.0192 36.1464 16.0199 36.9044 19.0692 36.9047H19.0772C29.1435 36.9047 37.3377 28.7769 37.342 18.7869C37.3439 13.946 35.4457 9.39399 31.9969 5.96928C28.5487 2.54486 23.9627 0.657971 19.0765 0.655762C9.009 0.655762 0.815398 8.78305 0.811242 18.7726" fill="url(#paint0_linear_107_120)"/>
<path d="M0.158828 18.7667C0.157789 22.0743 1.02867 25.3033 2.68434 28.1495L0 37.8744L10.0301 35.2649C12.7937 36.76 15.9052 37.5483 19.0714 37.5494H19.0796C29.507 37.5494 37.9955 29.1294 38 18.7817C38.0018 13.7669 36.0353 9.05122 32.4633 5.50381C28.8908 1.95685 24.1408 0.00206202 19.0796 0C8.65034 0 0.162984 8.41891 0.158828 18.7667ZM6.1321 27.6593L5.75759 27.0694C4.18327 24.5856 3.35231 21.7152 3.3535 18.7679C3.35677 10.1671 10.4111 3.16961 19.0855 3.16961C23.2863 3.17138 27.2341 4.79625 30.2035 7.74434C33.1727 10.6927 34.8065 14.612 34.8055 18.7805C34.8016 27.3814 27.7471 34.3797 19.0796 34.3797H19.0733C16.2511 34.3782 13.4832 33.6262 11.0693 32.205L10.4948 31.867L4.54278 33.4154L6.1321 27.6593Z" fill="url(#paint1_linear_107_120)"/>
<path d="M14.3504 10.921C13.9962 10.14 13.6235 10.1242 13.2867 10.1105C13.0109 10.0987 12.6956 10.0996 12.3806 10.0996C12.0654 10.0996 11.5531 10.2173 11.1201 10.6864C10.6867 11.156 9.46533 12.2907 9.46533 14.5985C9.46533 16.9063 11.1594 19.1368 11.3956 19.4501C11.6321 19.7628 14.6661 24.6504 19.4714 26.5306C23.4649 28.0932 24.2776 27.7824 25.1443 27.7041C26.0112 27.626 27.9415 26.5697 28.3353 25.4743C28.7294 24.3791 28.7294 23.4403 28.6112 23.2441C28.4931 23.0486 28.1778 22.9313 27.705 22.6968C27.2323 22.4623 24.9079 21.3273 24.4746 21.1707C24.0412 21.0143 23.726 20.9363 23.4107 21.406C23.0955 21.8749 22.1901 22.9313 21.9142 23.2441C21.6385 23.5577 21.3626 23.5967 20.89 23.3621C20.4169 23.1267 18.8944 22.632 17.088 21.034C15.6826 19.7907 14.7338 18.2552 14.458 17.7855C14.1822 17.3165 14.4285 17.0623 14.6655 16.8286C14.878 16.6184 15.1385 16.2808 15.3751 16.007C15.6108 15.7331 15.6895 15.5376 15.8471 15.2248C16.0049 14.9116 15.9259 14.6377 15.8079 14.4031C15.6895 14.1684 14.7708 11.8485 14.3504 10.921Z" fill="white"/>
</g>
<defs>
<linearGradient id="paint0_linear_107_120" x1="1834.85" y1="3656.98" x2="1834.85" y2="0.655762" gradientUnits="userSpaceOnUse">
<stop stop-color="#1FAF38"/>
<stop offset="1" stop-color="#60D669"/>
</linearGradient>
<linearGradient id="paint1_linear_107_120" x1="1900" y1="3787.44" x2="1900" y2="0" gradientUnits="userSpaceOnUse">
<stop stop-color="#F9F9F9"/>
<stop offset="1" stop-color="white"/>
</linearGradient>
<clipPath id="clip0_107_120">
<rect width="38" height="38" fill="white"/>
</clipPath>
</defs>
</svg>
